{"title":"Comedy Nights With Kapil 2nd August 2014 Ft.Anupam Kher S01E99 1","uid":10692320,"size":975221979,"categoryP":"video","categoryS":"tv_shows","magnet":"?xt=urn:btih:28ce189f4d231210ded11c582499c22ac34ac6f5&amp;dn=Comedy+Nights+With+Kapil+2nd+August+2014+Ft.Anupam+Kher+S01E99+1&amp;tr=udp%3A%2F%2Ftracker.openbittorrent.com%3A80&amp;tr=udp%3A%2F%2Fopen.demonii.com%3A1337&amp;tr=udp%3A%2F%2Ftracker.coppersurfer.tk%3A6969&amp;tr=udp%3A%2F%2Fexodus.desync.com%3A6969","seeders":2,"leechers":0,"uploader":"Palash995","files":-1,"time":1407134153,"description":"Comedy Nights With Kapil 2nd August 2014 Ft.Anupam Kher S01E99 1080p HDTV Rip AC3 5.1 Team Telly\n\nAll Credits to : Team Telly\n(Note:- It's Not My Release..i am just sharing it to you all which is already available on the internet.)\n &lt;a href=&quot;\nhttp://i.imgur.com/JQhr9qn.png&quot; rel=&quot;nofollow&quot; target=&quot;_NEW&quot;&gt;\nhttp://i.imgur.com/JQhr9qn.png&lt;/a&gt;\n &lt;a href=&quot;\nhttp://i.imgur.com/wxJYKEN.png&quot; rel=&quot;nofollow&quot; target=&quot;_NEW&quot;&gt;\nhttp://i.imgur.com/wxJYKEN.png&lt;/a&gt;\n\n\nScreenshots:-\n &lt;a href=&quot;\nhttp://i.imgur.com/rIsQmCJ.jpg&quot; rel=&quot;nofollow&quot; target=&quot;_NEW&quot;&gt;\nhttp://i.imgur.com/rIsQmCJ.jpg&lt;/a&gt; &lt;a href=&quot;\nhttp://i.imgur.com/0VQIIIP.jpg&quot; rel=&quot;nofollow&quot; target=&quot;_NEW&quot;&gt;\nhttp://i.imgur.com/0VQIIIP.jpg&lt;/a&gt; &lt;a href=&quot;\nhttp://i.imgur.com/WiMhbqD.jpg&quot; rel=&quot;nofollow&quot; target=&quot;_NEW&quot;&gt;\nhttp://i.imgur.com/WiMhbqD.jpg&lt;/a&gt; &lt;a href=&quot;\nhttp://i.imgur.com/RLtxQPW.jpg&quot; rel=&quot;nofollow&quot; target=&quot;_NEW&quot;&gt;\nhttp://i.imgur.com/RLtxQPW.jpg&lt;/a&gt; &lt;a href=&quot;\nhttp://i.imgur.com/HOE7xrp.jpg&quot; rel=&quot;nofollow&quot; target=&quot;_NEW&quot;&gt;\nhttp://i.imgur.com/HOE7xrp.jpg&lt;/a&gt; &lt;a href=&quot;\nhttp://i.imgur.com/vHMEZpj.jpg&quot; rel=&quot;nofollow&quot; target=&quot;_NEW&quot;&gt;\nhttp://i.imgur.com/vHMEZpj.jpg&lt;/a&gt; &lt;a href=&quot;\nhttp://i.imgur.com/kP5mOMb.jpg&quot; rel=&quot;nofollow&quot; target=&quot;_NEW&quot;&gt;\nhttp://i.imgur.com/kP5mOMb.jpg&lt;/a&gt; &lt;a href=&quot;\nhttp://i.imgur.com/5AxmrDa.jpg&quot; rel=&quot;nofollow&quot; target=&quot;_NEW&quot;&gt;\nhttp://i.imgur.com/5AxmrDa.jpg&lt;/a&gt; &lt;a href=&quot;\nhttp://i.imgur.com/qVNQ7uc.jpg&quot; rel=&quot;nofollow&quot; target=&quot;_NEW&quot;&gt;\nhttp://i.imgur.com/qVNQ7uc.jpg&lt;/a&gt;\n\nMedia Info:-\n\nGeneral\nComplete name                            : Comedy Nights With Kapil 2nd August 2014 Ft.Anupam Kher S01E99 1080p HDTV Rip AC3 5.1 Team Telly.mp4\nFormat                                   : MPEG-4\nFormat profile                           : Base Media\nCodec ID                                 : isom\nFile size                                : 930 MiB\nDuration                                 : 1h 9mn\nOverall bit rate                         : 1 868 Kbps\n\nVideo\nID                                       : 1\nFormat                                   : AVC\nFormat/Info                              : Advanced Video Codec\nFormat profile                           : &lt;a class=&quot;__cf_email__&quot; href=&quot;/cdn-cgi/l/email-protection&quot; data-cfemail=&quot;d890b1bfb09894ecf6e9&quot;&gt;[email&amp;#160;protected]&lt;/a&gt;&lt;script cf-hash='f9e31' type=&quot;text/javascript&quot;&gt;\n/* &lt;![CDATA[ */!function(){try{var t=&quot;currentScript&quot;in document?document.currentScript:function(){for(var t=document.getElementsByTagName(&quot;script&quot;),e=t.length;e--;)if(t[e].getAttribute(&quot;cf-hash&quot;))return t[e]}();if(t&amp;&amp;t.previousSibling){var e,r,n,i,c=t.previousSibling,a=c.getAttribute(&quot;data-cfemail&quot;);if(a){for(e=&quot;&quot;,r=parseInt(a.substr(0,2),16),n=2;a.length-n;n+=2)i=parseInt(a.substr(n,2),16)^r,e+=String.fromCharCode(i);e=document.createTextNode(e),c.parentNode.replaceChild(e,c)}}}catch(u){}}();/* ]]&gt; */&lt;/script&gt;\nFormat settings, CABAC                   : Yes\nFormat settings, ReFrames                : 4 frames\nCodec ID                                 : avc1\nCodec ID/Info                            : Advanced Video Coding\nDuration                                 : 1h 9mn\nBit rate                                 : 1 403 Kbps\nMaximum bit rate                         : 4 077 Kbps\nWidth                                    : 1 920 pixels\nHeight                                   : 1 080 pixels\nDisplay aspect ratio                     : 16:9\nFrame rate mode                          : Constant\nFrame rate                               : 25.000 fps\nColor space                              : YUV\nChroma subsampling                       : 4:2:0\nBit depth                                : 8 bits\nScan type                                : Progressive\nBits/(Pixel*Frame)                       : 0.027\nStream size                              : 706 MiB (76%)\nWriting library                          : x264 core 142 r2431 ac76440\nColor primaries                          : Generic film\n\nAudio\nID                                       : 2\nFormat                                   : AC-3\nFormat/Info                              : Audio Coding 3\nMode extension                           : CM (complete main)\nFormat settings, Endianness              : Big\nCodec ID                                 : ac-3\nDuration                                 : 1h 9mn\nBit rate mode                            : Constant\nBit rate                                 : 448 Kbps\nChannel(s)                               : 6 channels\nChannel positions                        : Front: L C R, Side: L R, LFE\nSampling rate                            : 48.0 KHz\nBit depth                                : 16 bits\nCompression mode                         : Lossy\nStream size                              : 223 MiB (24%)","torrent":{"xt":"urn:btih:28ce189f4d231210ded11c582499c22ac34ac6f5","amp;dn":"Comedy+Nights+With+Kapil+2nd+August+2014+Ft.Anupam+Kher+S01E99+1","amp;tr":["udp%3A%2F%2Ftracker.openbittorrent.com%3A80","udp%3A%2F%2Fopen.demonii.com%3A1337","udp%3A%2F%2Ftracker.coppersurfer.tk%3A6969","udp%3A%2F%2Fexodus.desync.com%3A6969"],"infoHash":"28ce189f4d231210ded11c582499c22ac34ac6f5","infoHashBuffer":{"type":"Buffer","data":[40,206,24,159,77,35,18,16,222,209,28,88,36,153,194,42,195,74,198,245]},"announce":[],"urlList":[]}}